<svg width="350" height="350" viewBox="0 0 350 350" fill="none" xmlns="http://www.w3.org/2000/svg">
<path d="M295.312 88.8672H248.828L237.754 57.832C236.989 55.7084 235.587 53.8727 233.739 52.5758C231.892 51.2789 229.689 50.5839 227.432 50.5859H122.568C117.954 50.5859 113.818 53.4912 112.28 57.832L101.172 88.8672H54.6875C39.5801 88.8672 27.3438 101.104 27.3438 116.211V272.07C27.3438 287.178 39.5801 299.414 54.6875 299.414H295.312C310.42 299.414 322.656 287.178 322.656 272.07V116.211C322.656 101.104 310.42 88.8672 295.312 88.8672ZM175 244.727C144.785 244.727 120.312 220.254 120.312 190.039C120.312 159.824 144.785 135.352 175 135.352C205.215 135.352 229.688 159.824 229.688 190.039C229.688 220.254 205.215 244.727 175 244.727ZM142.188 190.039C142.188 198.741 145.645 207.087 151.798 213.241C157.952 219.395 166.298 222.852 175 222.852C183.702 222.852 192.048 219.395 198.202 213.241C204.355 207.087 207.812 198.741 207.812 190.039C207.812 181.337 204.355 172.991 198.202 166.837C192.048 160.684 183.702 157.227 175 157.227C166.298 157.227 157.952 160.684 151.798 166.837C145.645 172.991 142.188 181.337 142.188 190.039Z" fill="#F5F5F5"/>
</svg>
