<svg width="312" height="312" viewBox="0 0 312 312" fill="none" xmlns="http://www.w3.org/2000/svg">
<path fill-rule="evenodd" clip-rule="evenodd" d="M156 0C69.8455 0 0 69.8455 0 156C0 242.155 69.8455 312 156 312C242.155 312 312 242.155 312 156C312 69.8455 242.155 0 156 0ZM223.619 129.622C224.864 128.199 225.812 126.541 226.407 124.746C227.002 122.951 227.232 121.055 227.083 119.17C226.935 117.284 226.41 115.448 225.542 113.768C224.673 112.089 223.477 110.6 222.024 109.389C220.571 108.179 218.891 107.271 217.082 106.719C215.274 106.167 213.373 105.983 211.492 106.177C209.611 106.371 207.787 106.939 206.129 107.848C204.471 108.756 203.011 109.988 201.836 111.469L140.854 184.633L109.299 153.064C106.625 150.481 103.042 149.052 99.3238 149.084C95.6053 149.116 92.0484 150.608 89.4189 153.237C86.7895 155.867 85.298 159.424 85.2657 163.142C85.2334 166.86 86.6629 170.443 89.2462 173.117L131.792 215.663C133.185 217.056 134.853 218.143 136.69 218.855C138.527 219.567 140.492 219.888 142.46 219.799C144.428 219.71 146.356 219.211 148.121 218.335C149.885 217.46 151.448 216.226 152.71 214.713L223.619 129.622Z" fill="#4ECB71"/>
</svg>
