<svg width="313" height="312" viewBox="0 0 313 312" fill="none" xmlns="http://www.w3.org/2000/svg">
<path fill-rule="evenodd" clip-rule="evenodd" d="M156.333 0C70.1788 0 0.333313 69.8455 0.333313 156C0.333313 242.155 70.1788 312 156.333 312C242.488 312 312.333 242.155 312.333 156C312.333 69.8455 242.488 0 156.333 0ZM208.905 123.481C211.489 120.806 212.918 117.224 212.886 113.506C212.853 109.787 211.362 106.23 208.733 103.601C206.103 100.971 202.546 99.4798 198.828 99.4475C195.109 99.4152 191.527 100.845 188.852 103.428L156.333 135.947L123.814 103.428C122.506 102.073 120.941 100.993 119.211 100.25C117.481 99.5066 115.62 99.1154 113.737 99.099C111.854 99.0826 109.986 99.4415 108.243 100.155C106.501 100.868 104.917 101.921 103.586 103.252C102.254 104.584 101.201 106.167 100.488 107.91C99.7748 109.653 99.4159 111.52 99.4323 113.404C99.4487 115.287 99.8399 117.147 100.583 118.878C101.326 120.608 102.407 122.173 103.761 123.481L136.28 156L103.761 188.519C102.407 189.827 101.326 191.392 100.583 193.122C99.8399 194.853 99.4487 196.713 99.4323 198.596C99.4159 200.48 99.7748 202.347 100.488 204.09C101.201 205.833 102.254 207.416 103.586 208.748C104.917 210.079 106.501 211.132 108.243 211.845C109.986 212.559 111.854 212.917 113.737 212.901C115.62 212.885 117.481 212.493 119.211 211.75C120.941 211.007 122.506 209.927 123.814 208.572L156.333 176.053L188.852 208.572C191.527 211.155 195.109 212.585 198.828 212.552C202.546 212.52 206.103 211.029 208.733 208.399C211.362 205.77 212.853 202.213 212.886 198.494C212.918 194.776 211.489 191.194 208.905 188.519L176.386 156L208.905 123.481Z" fill="#F24E1E"/>
</svg>
